<?xml version="1.0" ?><svg height="400" version="1.0" width="500" xmlns="http://www.w3.org/2000/svg">
<path d="M0 0L0 195L25 197C26.0515 188.68 24.6783 175.348 28.4568 168.015C31.4573 162.193 40.025 161.441 41.6821 154.985C44.0885 145.609 34.7042 141.293 33.3295 133C32.4415 127.643 37.3873 125.129 40.3943 121.675C45.9596 115.284 47.3774 101.127 59 102.128C68.4621 102.943 82.1136 126.062 81.9383 135C81.8108 141.5 76.1905 146.204 78.3981 152.945C79.9589 157.711 86.1405 159.138 89.1235 163.043C93.9232 169.327 94.5644 175.807 97 183L98 183C98.6581 167.673 102.375 152.288 103.83 137C105.074 123.934 101.722 114.654 114 106L117.093 162L121 188L122 188C124.091 179.882 129.77 173.365 131.485 165C134.941 148.146 134.043 130.89 135.325 114C135.936 105.948 137.817 103.029 146 103L153 159L154 159C168.789 139.169 173.279 180.5 176.988 186.91C181.553 194.802 188.972 199.434 193 208L194 208C199.987 189.378 181.229 162.03 202 149C204.925 156.13 208.972 163.273 210.081 171C212.139 185.333 210.077 197.729 214.641 212C215.962 216.13 214.233 226.127 217.603 228.822C219.237 230.128 222.011 230.178 224 230.331C241.927 231.709 232.254 215.308 235.643 205.004C237.557 199.184 244.328 197.279 246.072 190.996C248.544 182.087 245.283 171.314 246.17 162C248.227 140.392 254.016 118.581 254.961 97C255.609 82.2049 251.879 64.8297 258 51C264.232 65.0806 260.379 82.9301 261.039 98C261.67 112.41 265.635 126.711 265.985 141C266.302 153.923 267.349 166.156 268.535 179C269.027 184.315 267.445 189.773 269.589 194.96C271.27 199.027 275.929 200.335 277.972 204.093C281.368 210.339 275.403 222.407 282.419 226.968C287.722 230.416 302.58 229.117 305.297 222.981C312.912 205.788 302.104 184.762 307.433 167.055C309.774 159.278 319.809 164.869 323.147 158.721C332.441 141.604 327.649 125.863 330.439 108C331.863 98.8858 334.607 90.951 340.87 84.0409C344.109 80.4681 348.555 77.1587 352.396 82.2184C355.92 86.8604 352.657 97.5907 352.05 103C350.488 116.914 347.671 137.072 354 150C366.069 139.731 372.424 123.375 378 109L380 109C381.629 113.888 384.273 118.756 384.53 124C384.864 130.815 381.957 138.969 387.419 144.606C391.24 148.55 397.964 149.39 403 151C405.054 142.378 401.897 131.833 406.417 124.044C410.033 117.814 419.179 118.379 422.117 125.09C426.352 134.761 419.233 144.58 427 154C433.032 143.39 434 132.928 434 121L436 121C436 127.351 433.898 141.913 443.015 143.272C457.667 145.457 463.164 119.983 474.896 129.498C494.151 145.115 470.568 192.255 500 196L500 0L0 0z" style="fill:#06e6e6; stroke:none;"/>
<path d="M344 23L344 28C356.378 28 384.295 30.9707 390 17C376.041 12.9138 357.954 20.2924 344 23z" style="fill:#b47878; stroke:none;"/>
<path d="M345 24C333.872 20.7181 324.488 27.8352 314 30C311.274 19.8673 296.137 23.1274 302.09 31.7716C308.196 40.6362 323.504 30.8759 330.104 29.3287C336.2 27.8995 342.082 31.6521 345 24z" style="fill:#5c00ff; stroke:none;"/>
<path d="M433 41C438.622 46.9641 444.265 44.1198 450.999 46.6034C459.1 49.5911 463.029 59.5137 472.981 53.0262C478.481 49.4411 492.427 29.1498 481.856 24.6034C473.784 21.1318 460.07 28.7644 452 30.5764C444.284 32.3089 439.403 36.6272 433 41M216 42C212.626 37.1908 207.834 30.4664 201.999 28.564C194.804 26.2182 182.086 32.2875 182.593 40.9807C182.876 45.8445 188.373 45.9754 192 45.9992C200.321 46.0538 209.207 47.4222 216 42M131 61L128 57L132 57C124.851 49.7747 114.344 51.1909 105 49.8704C100.423 49.2235 94.587 48.8887 93.7207 54.9606C93.0801 59.45 98.6945 60.6242 102 61.331C110.453 63.1386 123.11 64.8178 131 61M393 50.5733C384.143 50.4018 367.189 53.2923 359.093 56.8789C351.866 60.0808 352.128 67.5155 360.001 68.6991C368.622 69.9951 388.251 68.8134 395.985 64.821C403.499 60.9418 401.812 50.7439 393 50.5733M257 51C253.527 66.1942 255.969 81.5524 254.91 97C253.448 118.343 248.206 139.614 246.17 161C245.289 170.247 248.415 181.148 246.068 189.999C244.358 196.448 237.727 198.229 235.607 204.015C232.057 213.706 242.039 230.565 225 230.135C222.836 230.08 220.188 230.077 218.318 228.822C214.084 225.979 216.115 215.607 214.641 211C207.907 189.943 213.279 168.819 202 149C181.629 157.65 197.928 191.677 194 208L193 208C189.784 198.357 181.722 194.361 176.988 185.961C171.922 176.972 174.448 165.892 167.363 157.109C162.892 151.567 156.903 153.116 154 159L153 159C152.197 140.295 151.098 120.833 146 103C142.586 103.003 137.823 102.171 136.419 106.148C133.893 113.307 136.268 120.717 135.961 128C135.487 139.229 133.153 150.859 131.816 162C130.664 171.59 123.467 178.721 122 188L121 188L117.04 160L114 106C109.477 108.11 105.172 111.82 104.228 117C102.485 126.569 103.821 137.238 102.829 147C101.614 158.962 98.2486 170.955 98 183L97 183C95.0402 175.425 94.1878 168.442 89.1235 162.105C86.1921 158.437 80.6301 157.372 78.7315 152.949C76.1422 146.917 81.6516 141.948 81.956 136C82.4788 125.787 69.349 101.821 58 101.689C46.9025 101.56 45.7562 114.348 40.3943 120.816C37.2415 124.618 31.8694 127.215 32.8966 133C34.2471 140.606 43.6519 145.773 41.6782 153.996C40.0503 160.779 31.5258 161.257 28.4568 167.043C24.6519 174.217 25.6492 188.774 25 197L0 195L0 355L1 355C6.5298 344.888 17.9711 344.546 25.4707 338.397C31.7387 333.257 34.9975 321.636 40 315L41 315L54.1852 333.597L80 328.3L103 330.921L135 327C132.565 324.061 128.733 322.56 126.451 319.621C123.067 315.265 128.816 309.808 133.004 309.148C144.851 307.28 151.159 317.452 162 317.641C171.285 317.803 179.607 310.379 189 311.34C193.972 311.849 198.094 315.286 203 315.698C220.377 317.157 239.45 315.095 257 314.861C282.672 314.519 308.372 315.387 334 316.015C339.688 316.154 346.745 316.504 352 318.8C357.272 321.104 360.806 325.251 367 324.814C374.02 324.318 379.366 319.804 386 318.55C391.179 317.571 395.455 321.642 401 320.294C426.264 314.152 455.232 301.13 482 305.213C489.205 306.312 493.373 312.748 500 315L500 196C470.397 190.396 494.625 145.703 475.787 129.498C462.778 118.308 458.185 145.591 443.015 142.748C434.213 141.099 436 127.314 436 121L434 121C434 133.335 431.671 142.611 427 154C421.036 143.732 426.588 133.79 422.12 124.189C419.355 118.246 409.814 117.562 406.417 123.109C401.697 130.819 404.611 142.323 403 151C397.839 148.779 391.344 148.196 387.419 143.786C382.194 137.915 385.004 130.855 384.737 124C384.533 118.767 382.186 113.656 380 109L378 109L354 150C348.823 135.902 350.4 118.696 352.05 104C352.688 98.3211 356.019 87.3511 352.972 82.2137C349.614 76.5521 344.252 79.4936 340.87 83.0941C334.713 89.6489 332.155 97.2868 330.615 106C327.371 124.361 331.975 140.052 323.147 157.867C319.908 164.401 309.658 159.186 307.433 166.133C301.81 183.685 311.66 203.56 305.656 220.999C303.181 228.189 288.3 231.134 282.419 226.382C275.486 220.78 281.775 209.881 277.972 203.184C275.857 199.46 271.267 198.146 269.589 193.985C267.625 189.116 269.176 183.991 268.7 179C267.44 165.81 266.311 153.276 265.985 140C265.635 125.711 261.67 111.41 261.039 97C260.574 86.3715 261.017 75.639 261 65C260.992 60.1148 261.224 54.1728 257 51z" style="fill:#b47878; stroke:none;"/>
<path d="M128 57C131.006 60.5185 134.373 61.2742 137 57L128 57z" style="fill:#5c00ff; stroke:none;"/>
<path d="M322 65L316 70L316 71L323 70L325 73L325 74L316 76L316 77C321.082 77.5856 323.82 77.0771 328 74L328 73L322 65z" style="fill:#b47878; stroke:none;"/>
<path d="M313 75L325 74L325 73L323 70C318.685 70.8049 314.79 70.5475 313 75z" style="fill:#5c00ff; stroke:none;"/>
<path d="M297 82L298 83L297 82z" style="fill:#0047ff; stroke:none;"/>
<path d="M31 107L36 106L31 107M15.044 111.758C7.21662 114.687 9.41848 130.475 17.8117 126.712C24.945 123.514 25.3391 107.905 15.044 111.758z" style="fill:#b47878; stroke:none;"/>
<path d="M499 236L500 237L499 236M279 252L285 257L283 253L302 250C295.002 243.963 286.087 248.374 279 252z" style="fill:#04c803; stroke:none;"/>
<path d="M283 253C287.752 263.22 303.703 263.647 307 252C299.1 249.121 290.53 249.053 283 253z" style="fill:#ccff04; stroke:none;"/>
<path d="M40 284L40 293L41 293L42 284L40 284z" style="fill:#96053d; stroke:none;"/>
<path d="M500 384L500 337C500 331.199 501.816 321.713 499.397 316.375C497.774 312.795 492.31 309.244 489 307.367C481.121 302.902 470.496 305.456 462 306.576C453.576 307.685 444.219 307.319 436 309.429C424.131 312.476 410.463 319.966 398 320.588C393.761 320.799 390.327 317.636 386 318.292C379.015 319.353 373.403 324.721 366 324.725C360.444 324.727 356.463 318.442 351 319.873C340.039 322.746 341.143 328.105 335.983 335.576C333.301 339.459 328.609 344.749 329.812 349.999C332.655 362.397 360.117 363.844 370 366.252C389.126 370.91 409.537 376.547 429 378.815C434.629 379.471 440.316 377.793 446 378.039C463.66 378.806 482.625 380.774 500 384z" style="fill:#ccff04; stroke:none;"/>
<path d="M202 316C188.585 308.207 179.719 313.596 166 316.829C156.132 319.155 150.258 309.608 141 309.044C125.604 308.105 119.104 320.334 136 326.476C146.245 330.2 153.382 324.302 163 322.379C175.647 319.85 192.817 328.161 202 316z" style="fill:#0066c8; stroke:none;"/>
<path d="M139 335L147 343C138.66 346.974 143.106 355.049 137.681 359.012C130.395 364.333 112.603 362.606 122 351C116.906 344.253 111.899 338.409 104 335L106 331C102.514 331.116 98.9427 331.557 100.319 336.019C102.132 341.899 110.67 352.203 108.454 358.536C106.053 365.402 95.9103 367.435 90 369.058C78.101 372.325 66.5102 382.595 57 369C53.4341 372.812 53.0059 379.026 49.4367 382.4C43.7545 387.773 30.7438 387.034 25 383L24 383C21.9426 385.591 19.8271 389.512 16.8264 391.092C3.57013 398.069 5.80218 371.24 7 366L0 361L0 400L215 400C213.586 397.447 211.538 394.849 210.792 392C209.019 385.232 213.293 364.703 222.945 366.412C232.017 368.018 227.824 389.247 226 395C240.097 392.13 233.75 368.094 247 361.457C254.018 357.942 268.083 358.63 276 358.091C278.862 357.896 282.247 357.854 284.606 359.742C290.088 364.132 289.385 372.867 296.043 376.911C306.794 383.442 322.839 387.682 335 391L335 390C324.754 384.168 309.574 377.479 305 366C317.727 367.276 329.935 373.11 343 370L343 369C333.961 370.603 310.394 366.875 319.307 352.228C321.551 348.541 325.507 350.064 328.57 347.973C333.823 344.388 337.979 333.071 338 327L326 326C321.801 340.087 302.133 334.573 295 326L321 324C315.652 311.885 296.436 315 285 315C260.019 315 233.877 312.661 209 315.105C199.968 315.992 193.768 323.292 184 322.791C171.617 322.156 144.14 320.059 139 335z" style="fill:#ebff07; stroke:none;"/>
<path d="M40 315C33.2113 321.503 31.9976 331.334 25.4707 337.682C22.7314 340.346 19.1858 339.443 16 341.027C6.96094 345.521 -8.03736 358.904 7 366C5.24463 371.537 3.76353 378.278 5.70293 384C9.9815 396.624 19.1879 391.445 24 383L25 383C29.8182 387.808 45.1503 387.832 50.0656 382.4C53.0967 379.051 54.4078 372.934 57 369C64.0369 383.441 79.5409 372.793 90 369.34C96.208 367.291 105.971 366.347 108.647 358.91C111.578 350.76 100.362 339.4 100 331C87.249 325.514 75.5331 328.922 63 333L64 335L56 338C52.5241 330.19 47.0002 320.038 40 315z" style="fill:#08b8aa; stroke:none;"/>
<path d="M202.667 316.333L203.333 316.667L202.667 316.333z" style="fill:#8c8c8c; stroke:none;"/>
<path d="M317 316C322.621 331.281 342.792 328.742 352 318L317 316z" style="fill:#ffe000; stroke:none;"/>
<path d="M201 317L202 318L201 317z" style="fill:#8c8c8c; stroke:none;"/>
<path d="M442 317C437.009 322.234 431.139 332.228 441 336L442 325C445.418 328.334 445.732 332.397 445 337L451 335L442 317z" style="fill:#b47878; stroke:none;"/>
<path d="M295 326C300.458 335.241 305.75 334.035 315 333.61C318.416 333.454 328.614 333.218 324.867 326.434C323.001 323.056 317.147 324.185 314 323.675C311.325 323.242 308.754 322.128 306 322.303C302.211 322.545 298.49 324.646 295 326z" style="fill:#ff1f00; stroke:none;"/>
<path d="M442 325L443 341C446.649 336.095 445.752 330.54 444 325L442 325z" style="fill:#0047ff; stroke:none;"/>
<path d="M118 328L118 329L132 327L118 328z" style="fill:#ebff07; stroke:none;"/>
<path d="M104 335L122 351C109.783 361.68 130.454 363.705 137.682 359.486C140.777 357.679 139.484 353.896 140.282 351C141.28 347.381 144.101 345.088 147 343L139 335L143 328C134.729 326.031 108.178 326.716 104 335z" style="fill:#787846; stroke:none;"/>
<path d="M55 334L56 338L64 334L55 334z" style="fill:#ebff07; stroke:none;"/>
<path d="M145 334L145 337L146 337L145 334z" style="fill:#8c8c8c; stroke:none;"/>
<path d="M387 343L402 350.773L420 343C411.835 338.651 394.686 337.281 387 343M436 342L436 343C441.583 345.34 445.59 350.635 451 352.687C462.284 356.966 484.138 354.994 488 342C478.42 336.979 470.93 341.058 461 341.62C452.252 342.115 445.023 340.25 436 342z" style="fill:#04fa07; stroke:none;"/>
<path d="M364 365C358.293 361.559 351.193 362.586 345 360.455C338.187 358.112 334.504 353.417 328.576 350.028C326.324 348.74 322.688 348.636 320.513 350.179C314.845 354.2 317.936 365.906 324.044 367.697C337.428 371.62 350.927 368.097 364 365z" style="fill:#ff1f00; stroke:none;"/>
<path d="M219 399L219 400L237 400C236.186 396.852 233.25 389.037 238.133 387.752C243.556 386.325 247.792 399.403 255 399.945C282 401.976 309.915 400 337 400C336.663 386.049 311.142 382.282 300 378.236C290.289 374.71 291.443 362.213 283.786 358.742C278.737 356.453 272.095 358.668 267 359.535C258.948 360.907 250.029 357.655 243.044 363.394C235.433 369.648 237.201 381.826 232.822 389.956C230.307 394.624 223.445 396.572 219 399z" style="fill:#3de6fa; stroke:none;"/>
<path d="M330 358L331 359L330 358M24 365L24 372L25 372L28 367L24 365z" style="fill:#ebff07; stroke:none;"/>
<path d="M305 366C308.536 379.135 325.456 382.675 334.726 390.789C337.473 393.194 338.582 396.537 342.044 398.196C353.588 403.727 373.394 400 386 400L500 400L498.972 384.742L487 382.285L452 378.576L429 378.671L366 365.199L336 370.953L305 366z" style="fill:#787878; stroke:none;"/>
<path d="M219.044 366.573C212.463 368.542 209.215 385.945 210.458 392C211.263 395.922 214.552 400.373 219.004 399.238C231.396 396.081 232.55 362.533 219.044 366.573z" style="fill:#96053d; stroke:none;"/>
<path d="M344 368L345 369L344 368z" style="fill:#ebff07; stroke:none;"/>
<path d="M185 372L185 378L186 378L185 372z" style="fill:#96053d; stroke:none;"/>
<path d="M251 400C248.275 396.741 244.673 389.147 240.792 387.623C234.238 385.049 234.151 395.103 236.988 398.397C239.627 401.46 247.35 400 251 400z" style="fill:#ebff07; stroke:none;"/>
<path d="M335 391L336 394L337 394L337 391L335 391M337 394L338 395L337 394z" style="fill:#8c8c8c; stroke:none;"/>
<path d="M337 395L337 400L346 400L346 399L337 395z" style="fill:#ff1f00; stroke:none;"/>
</svg>