<?xml version="1.0" ?><svg height="512" version="1.0" width="669" xmlns="http://www.w3.org/2000/svg">
<path d="M0 0L0 4C17.2257 -3.01776 38.9885 3.11618 57 4.83023C92.5756 8.21576 128.462 7.90952 164 12.5756C174.839 13.9987 186.07 13.9825 197 14C201.791 14.0077 208.743 13.6545 212.351 17.4329C216.838 22.131 216.923 31.8896 216.996 38C217.188 54.162 218.56 69.9281 216.424 86C214.832 97.9781 217.059 110.071 216.741 122C215.831 156.107 218.175 190.731 219.015 225C219.298 236.576 223.616 248.497 220.446 259.999C219.162 264.656 214.97 266.849 213.263 271.104C211.606 275.234 213.325 281.205 210.397 284.682C208.027 287.496 204.046 286.602 201.039 288.179C197.958 289.795 196.272 293.482 192.961 294.647C190.186 295.624 186.861 294.093 184 294.079C171.248 294.019 158.529 290.231 146 291.09C139.037 291.567 135.263 294.975 128.999 297.007C122.026 299.269 114.135 298.032 107.09 300.394C103.654 301.545 101.475 304.75 97.9961 305.822C84.9108 309.853 69.3217 304.556 56 305.379C36.7766 306.567 20.1806 316.579 0 315L0 487C22.702 479.613 44.2859 469.198 67 461.749C83.2512 456.42 104.389 453.021 118.775 443.583C123.551 440.45 124.551 432.714 127.353 428C134.043 416.741 143.103 402.561 155 396.608C177.316 385.441 204.034 375.19 228 368.428C247.667 362.879 271.261 359.305 289 349C284.695 338.433 287.942 328.784 285.826 318C284.888 313.217 280.589 308.895 283.436 304.066C287.729 296.782 305.188 294.07 313 294L314 282L317 293L337 287C336.999 279.145 333.475 268.467 335.714 261C337.08 256.441 343.753 248.443 340.879 243.433C336.366 235.568 319.831 244.928 316.542 234.895C314.132 227.54 323.462 217.767 326.691 212C330.724 204.795 333.389 190.325 342 187.548C350.619 184.768 365.922 187.442 371.298 195.043C375.499 200.984 376.614 209.454 379.894 216C382.102 220.405 389.579 232.062 387.608 236.852C385.439 242.124 371.807 240.686 367 243C368.401 249.111 372.283 255.746 372.2 262C372.114 268.491 363.17 282.957 370.434 287.972C373.81 290.304 381.016 289.82 385 290.035C393.649 290.504 401.558 291.754 410 293.485C416.811 294.882 422.744 294.593 424 303C446.095 296.501 438.056 284.196 440.289 267C444.303 236.101 437.709 203.591 445.239 173C446.873 166.363 442.711 158.938 447.303 153.034C451.656 147.438 458.673 149.06 460.566 156.004C464.405 170.093 453.351 189.713 476 191.826C487.908 192.937 500.063 191.272 512 192.09C531.05 193.394 549.854 197.599 569 198.91C588.387 200.238 606.935 199.82 626 204.112C638.977 207.033 658.543 199.596 668 211L669 211L669 0L0 0z" style="fill:#787878; stroke:none;"/>
<path d="M218 78C218 62.977 218.479 46.9078 216.715 32C216.148 27.2108 216.236 20.2424 212.351 16.7384C208.862 13.5914 202.357 14.007 198 14C187.96 13.9839 178.003 13.5955 168 12.9105C128.343 10.1947 88.5977 7.09714 49 3.91434C37.6586 3.00275 26.3989 1 15 1C10.9598 1 5.71555 0.310486 2.3179 3.00925C-1.64256 6.15506 0 14.5269 0 19L0 60C0 65.3462 -1.43228 72.3943 4.05864 75.4429C18.8261 83.6421 38.4436 91.5892 55 82.5826C62.6789 78.4052 67.5119 66.8753 77 66.1767C91.7688 65.0893 103.671 83.4529 120 80.6705C126.772 79.5166 132.631 73.499 139.285 72.9969C147.153 72.4033 152.662 78.8981 161 77.6999C169.524 76.4748 176.842 70.6664 185.576 70.8642C196.866 71.1199 206.555 77.9925 218 78z" style="fill:#ff3307; stroke:none;"/>
<path d="M649 37.4645C615.343 40.2325 581.719 42.484 548 43.9606C538.183 44.3906 517.023 40.0489 509.318 46.8542C504.709 50.9249 506.382 62.3471 505.715 68C503.035 90.7009 505.428 114.266 505.985 137C506.139 143.276 503 159.659 508.434 163.91C516.64 170.332 539.92 165.952 550 166.001C567.703 166.086 583.793 170.957 601 172.826C611.778 173.998 623.161 172.996 634 173C639.888 173.002 646.179 174.707 651.996 173.786C663.551 171.957 658 151.367 658 143C658 116.006 658.827 89.0136 659.001 62C659.061 52.5909 664.571 36.184 649 37.4645z" style="fill:#ff0633; stroke:none;"/>
<path d="M0 74L0 315C19.8331 317.504 36.1141 307.817 55 305.705C68.8449 304.157 84.295 309.632 97.9961 306.258C101.62 305.365 103.757 302.13 107.09 300.724C113.934 297.837 121.963 299.143 128.999 297.291C135.998 295.449 140.248 291.376 148 291.039C162.11 290.427 178.891 298.871 192.961 295.212C196.717 294.235 198.624 289.923 202.015 288.179C204.83 286.731 209.03 287.593 210.972 284.682C213.224 281.306 211.785 275.881 213.263 272.043C214.915 267.754 219.168 265.594 220.446 260.996C224.133 247.731 219.005 233.455 219 220C218.982 172.47 216.869 125.419 217 78C205.865 77.9005 196.184 70.6412 185 70.7145C175.094 70.7794 166.939 78.1858 157 77.9059C150.496 77.7227 145.83 72.4181 139 72.8542C130.884 73.3724 124.646 81.4003 116 80.7755C102.121 79.7724 91.2719 66.3126 78 66.0617C65.931 65.8335 60.9247 81.0012 50 84.2114C29.9885 90.0918 18.1974 78.9671 0 74z" style="fill:#e6e6e6; stroke:none;"/>
<path d="M0 73L1 74L0 73z" style="fill:#787878; stroke:none;"/>
<path d="M130 512C148.12 512 166.953 513.497 185 511.941C188.665 511.625 191.445 508.646 195 508.55C199.657 508.425 204.23 511.691 209 511.957C223.572 512.769 238.404 512 253 512L512 512L611 512C619.579 512 640.722 515.753 647.671 510.397C654.496 505.136 649.345 498.357 647.805 492C644.726 479.291 639.5 464.781 644.468 452C647.017 445.44 651.434 439.876 657.015 435.683C660.532 433.04 666.039 431.495 667.427 426.956C671.133 414.842 666.496 400.437 667.039 388C667.841 369.671 669.802 351.511 668.961 333C668.688 327 664.742 322.088 664.286 316.424C663.919 311.879 666.251 306.691 666.405 302C666.716 292.554 665 282.607 665 273C665 257.118 668.595 241.686 668.985 226C669.106 221.151 670.35 213.429 667.258 209.329C660.04 199.759 636.643 206.403 626 203.87C606.989 199.344 588.288 200.667 569 198.83C550.27 197.047 531.685 193.369 513 192.09C499.988 191.198 485.749 193.938 473 191.181C457.432 187.814 460.6 171.946 460.957 160C461.111 154.825 458.595 147.909 452.001 149.072C442.627 150.725 443.775 175.335 442.845 183C439.447 211.018 442.051 240.011 440.09 268C439.414 277.638 445.058 289.494 435.981 296.366C415.257 312.053 391.635 314.286 368 322.698C329.485 336.406 290.648 348.907 252 361.996C236.171 367.357 220.557 370.752 205 377.139C186.147 384.879 162.25 388.565 146.015 401.529C137.218 408.553 127.311 425.506 123.204 436C116.799 452.372 126.371 471.863 129.715 488C131.371 495.994 130 503.898 130 512z" style="fill:#cc05ff; stroke:none;"/>
<path d="M367 243C371.718 241.281 385.238 241.982 387.778 237.682C390.505 233.065 383.296 222.366 381.335 218C378.074 210.742 375.814 199.103 370.581 193.213C365.007 186.939 351.874 185.816 344.001 186.898C333.466 188.346 323.833 213.887 319.276 223C317.606 226.341 314.163 233.062 316.697 236.606C321.367 243.136 339.236 236.173 340.882 245.109C341.917 250.729 336.609 255.882 335.422 261C332.855 272.071 336.973 291.907 345.619 299.49C353.635 306.521 365.266 299.839 368.478 291C369.895 287.103 367.687 283.039 368.214 279C369.016 272.847 372.64 267.406 372.504 261C372.38 255.204 368.77 248.534 367 243z" style="fill:#e0ff08; stroke:none;"/>
<path d="M668 231L666.137 301L664.063 317L668 329L669 329L669 261L668 231z" style="fill:#787878; stroke:none;"/>
<path d="M314 282L314 294C318.314 290.889 317.542 285.469 314 282z" style="fill:#00ff0a; stroke:none;"/>
<path d="M429 308C439.77 322.929 467.524 318.184 484 321.084C521.698 327.719 557.931 338.658 596 344.131C605.82 345.543 623.313 354.885 632.697 348.821C638.358 345.162 633.866 337.996 634.672 333C635.065 330.564 636.926 328.481 637.034 326C637.228 321.556 631.804 317.553 628 316.419C615.409 312.665 601.934 310.546 590 304.623C564.835 292.133 541.733 289.123 514 285.715C498.844 283.853 481.197 279.699 466 282.465C453.111 284.81 436.773 297.931 429 308z" style="fill:#00ebff; stroke:none;"/>
<path d="M332.985 287.484C321.139 289.147 308.677 294.209 297 297.101C292.17 298.297 286.349 298.505 283.422 303.213C280.085 308.58 284.377 312.81 285.624 318C287.523 325.906 284.949 334.035 286.214 341.999C286.736 345.29 288.304 348.472 292.043 348.388C301.999 348.165 313.575 342.353 323 339.344C346.823 331.74 369.7 321.949 394 315.873C401.144 314.087 423.191 310.759 423.883 300.986C424.312 294.918 417.123 294.34 413 293.816C407.05 293.061 398.582 293.38 393.246 292.072C387.151 290.577 376.603 286.744 370.379 289.603C363.749 292.65 362.22 302.877 353.001 302.269C343.063 301.613 342.236 286.185 332.985 287.484z" style="fill:#ff0652; stroke:none;"/>
<path d="M392 293L397 293C395.228 290.318 393.772 290.318 392 293z" style="fill:#66ff00; stroke:none;"/>
<path d="M668 369L668 414L669 414C669 401.258 672.91 380.701 668 369M668 416L668 442L669 442L668 416z" style="fill:#787878; stroke:none;"/>
<path d="M666 430C644.934 440.822 640.292 456.902 643.779 479C645.768 491.605 653.69 499.906 647 512L669 512L669 460C669 450.401 670.021 438.956 666 430M0 512L130 512L130.572 492L121 443L34 473.91L11 482.947L1.02778 487.51L0 512M189 512L205 512C199.565 508.105 193.456 506.208 189 512M636 511L637 512L636 511z" style="fill:#503232; stroke:none;"/>
</svg>