<?xml version="1.0" ?><svg height="667" version="1.0" width="500" xmlns="http://www.w3.org/2000/svg">
<path d="M0 0L0 483C10.3483 477.573 5.96323 465.166 1 458L13 458C3.8434 473.787 23.6211 468.732 33 471.623C38.7158 473.385 46.3543 479.516 52.6813 476.397C58.0877 473.731 49.9261 462.991 59.0154 462.797C69.575 462.571 62.5385 484.145 73.9414 477.971C79.0027 475.231 77.1582 469.341 79.4992 465C83.3473 457.865 93.2056 450.982 101 448.863C108.023 446.953 114.965 448.413 122 447.826C148.03 445.657 175.76 443.827 195.907 426.61C206.295 417.732 203.973 394.73 197.262 384C191.568 374.896 182.053 368.313 178.005 358C174.908 350.108 177.987 340.189 178 332C178.044 304.806 179.144 272 203.001 253.529C239.638 225.163 288.185 256.729 304.439 292C306.801 297.126 310.552 301.337 311.686 307C313.868 317.895 315.656 335.311 312.377 346C308.2 359.62 299.801 370.656 297.001 385C294.487 397.879 290.916 426.69 303.04 435.301C309.031 439.555 317.437 447.327 324 449.991C329.692 452.301 336.969 451.602 343 452.425C357.109 454.351 370.749 458.494 384.91 454.684C389.126 453.549 391.899 449.284 396 447.613C402.514 444.96 409.299 446.892 416 445.852C420.065 445.221 422.233 441.613 426 440.569C429.146 439.696 431.978 442.088 435 442.519C443.771 443.772 445.773 442.523 451 451C452.992 449.416 455.402 446.14 458.039 445.781C461.478 445.313 463.773 449.313 467 449.917C474.553 451.331 487.324 445.302 491 439L492 439L500 444L500 80C450.429 80 400.53 76.1294 351 73.9606C313.772 72.3305 275.403 71.3292 239 80C241.496 94.0047 251.148 98.1509 262 105C247.862 110.162 231.713 107.717 217 110.539C212.497 111.403 205.22 113.573 201.653 109.682C195.073 102.504 199.971 86.6561 199.999 78C200.028 69.1741 196.972 60.8753 197.001 52C197.057 34.6357 200 17.2849 200 0L0 0z" style="fill:#787878; stroke:none;"/>
<path d="M200 0C199.998 17.2677 197.021 34.6392 197 52C196.989 60.8747 200.057 69.2234 199.995 78C199.934 86.7419 194.979 102.09 201.009 109.682C204.266 113.782 211.65 111.524 216 110.866C229.878 108.767 249.416 111.09 262 105C252.13 96.1572 243.108 94.2602 239 80C325.172 64.0018 413.112 80 500 80L500 0L396 0C398.032 7.61499 397.069 12.2889 396 20C395.172 25.9731 395.634 32.6173 392.637 38C384.362 52.861 364.628 57.3523 353.394 42.9962C345.036 32.3146 345.004 10.1008 352 0L200 0z" style="fill:#787850; stroke:none;"/>
<path d="M352.005 1.02777C343.178 5.52533 347.893 13.5648 347.996 21C348.26 40.0018 360.212 60.2035 381.996 49.5972C395.555 42.9959 394.301 29.5507 396.615 17C397.501 12.1957 399.995 5.77472 395.995 1.60339C393.516 -0.980591 388.226 0 385 0C376.04 0 360.058 -3.07587 352.005 1.02777z" style="fill:#ffad00; stroke:none;"/>
<path d="M249 217C257.582 221.576 264.435 228.172 273 232.68C285.027 239.01 301.549 243.3 315 245C318.061 240.524 323.973 236.62 326.106 231.791C337.211 206.655 301.564 210.77 289 210.544C278.37 210.353 255.844 206.467 249 217z" style="fill:#787850; stroke:none;"/>
<path d="M305 233L305 234L312 234L305 233z" style="fill:#ffad00; stroke:none;"/>
<path d="M173 441C175.927 452.584 184.674 452.26 190.829 460.199C194.99 465.565 193.247 472.324 196.618 476.701C201.58 483.143 210.941 485.383 217.999 487.969C222.473 489.608 225.55 493.43 230.015 495.022C236.043 497.171 241.873 496.26 248 497.214C252.21 497.869 255.624 500.965 260 500.761C274.942 500.065 290.265 485.786 305 489.376C316.914 492.279 314.999 500.76 323.214 507.031C331.374 513.259 340.173 511.532 349 514.232C354.601 515.945 366.807 518.502 370.343 511.772C373.814 505.164 363.511 490.394 359.56 485.04C354.758 478.532 346.967 476.31 341.468 470.674C331.912 460.883 325.115 450.598 314.715 441.39C308.423 435.82 299.785 435.112 296.703 426C291.413 410.36 295.406 384.927 301.453 370C305.343 360.396 312.468 351.53 313.532 341C314.635 330.091 314.518 313.433 310.891 303C296.802 262.475 249.597 226.697 207 250.312C178.728 265.986 178.133 304.214 177.999 332C177.959 340.312 175.132 349.835 177.652 358C181.002 368.853 191.478 375.752 197.262 385C203.103 394.339 205.51 413.956 198.467 422.985C195.09 427.313 190.436 428.966 186.17 432.105C181.544 435.508 178.793 439.488 173 441z" style="fill:#96053d; stroke:none;"/>
<path d="M473 273L473 274L477 274L473 273z" style="fill:#ff3d06; stroke:none;"/>
<path d="M338 319L338 323L339 323L338 319z" style="fill:#96053d; stroke:none;"/>
<path d="M370 457L370 458L407 478.073L419 488C429.115 483.312 432.01 492.066 422 496L443 555C465.219 547.836 457.931 585.875 467.318 596.815C474.793 605.527 490.146 607.099 500 612L500 485C500 469.657 504.921 448.895 492 439L491 439C486.289 444.733 475.324 450.832 467.424 449.701C458.471 448.418 459.051 442.008 451 451C446.793 441.279 443.622 443.699 435 442.189C431.964 441.657 429.214 439.224 426 439.955C422.164 440.828 419.877 444.717 416 445.682C410.191 447.129 403.896 445.279 398 446.684C392.547 447.983 389.798 452.522 384.91 454.4C380.469 456.108 374.718 455.779 370 457z" style="fill:#503232; stroke:none;"/>
<path d="M45 477C41.9676 488.6 33.6599 483.06 25 482.174C20.5996 481.724 16.373 483.134 12 482.892C8.98026 482.725 5.17241 480.762 2.3179 482.411C-1.32162 484.514 0 491.52 0 495L0 531C2.6344 531 5.38944 530.801 8 531.214C24.8931 533.886 6.22536 555.345 17.1443 565.772C26.6912 574.888 37.8059 563.074 44 579L45 579L48.26 554L55.527 540L52.1296 517L56 478C69.4866 480.944 62.8302 489.693 61.1983 499C59.9928 505.875 59.63 515.071 60.1883 522C60.9948 532.011 57.4592 540.596 58.0432 551C58.297 555.521 60.5452 559.503 60.9066 564C61.5267 571.714 58.9058 579.314 59.054 587C59.5211 611.212 62.9568 635.704 64 660C71.7594 654.97 67.3559 639.434 67.179 632C66.8217 616.981 71.0209 602.876 71.7909 588C72.3822 576.577 70.6126 567.567 73 556C84.4877 568.759 81.4403 575.775 81 591L82 591C88.4185 585.087 91.0051 593.634 92.652 599C95.5574 608.467 89.107 629.795 98 636L101.942 623L99.4992 603L105 587L114 592L121 561L122 561C122.001 572.799 125.449 584.212 125.961 596C126.285 603.483 123.849 610.633 123.789 618C123.717 626.969 128.297 630.736 125.463 640C124.545 643.003 125.788 660.563 129.09 661.079C132.872 661.669 132.907 656.38 133.01 654C133.177 650.155 134.742 645.786 133.893 642C133.003 638.032 130.061 635.333 130.735 631C131.439 626.48 134.486 622.631 134.725 618C135.647 600.107 131.668 581.289 130.991 563.286C130.559 551.811 134.94 542.332 129 531C116.692 535.301 123.037 541.121 122 551L115 544L113 544C104.358 556.667 109.359 569.307 106 584L105 584C103.351 570.948 105.735 557.338 101.671 545C100.425 541.218 99.5797 533.418 93.9614 534.631C88.0145 535.915 88.2934 541.705 85.2724 545.699C82.3271 549.593 77.4533 551.481 73 553C69.4067 540.338 68.5054 530.914 67.9606 518C67.7358 512.67 65.4497 506.603 70.2284 502.514C78.0286 495.839 93.3095 496.045 100.786 488.772C107.564 482.178 99.912 475.268 104.279 468.144C106.405 464.676 110.668 464.429 113.91 462.468C121.407 457.933 135.791 450.611 144.486 458.6C148.503 462.29 149.062 470.364 153 475C144.884 477.963 137.471 480.251 130 475L129 475C123.632 481.06 124.768 484.576 129 491C136.598 487.051 140.111 489.065 145 496C149.232 494.324 151.508 492.341 153 488L154 488L161 501L162 501C164.511 488.563 170.511 495 177.17 499.012C180.658 501.113 184.053 500.905 187 504C188.38 503.655 189.719 503.389 191.029 502.812C203.742 497.209 188.965 495.116 185.938 490.772C182.773 486.228 183.653 479.939 185 475C194.154 486.365 207.284 488.043 204 506L201 506L198 502C196.551 508.085 197.396 515.436 189 513C191.054 521.759 185.114 522.184 182.201 529.089C180.103 534.065 180.739 548.103 169.468 545.323C165.407 544.322 163.61 536.914 161 534L154 561L145 552C142.1 563.481 155.493 571.981 153 583C148.411 581.656 139.831 584.199 145.105 590.397C147.261 592.929 151.462 592.407 154 595C143.609 596.566 146.614 602.021 144.363 610C139.79 626.208 145.155 633.154 152.698 647.004C155.017 651.261 155.25 656.429 160.043 658.972C164.677 661.431 170.978 659.377 176 660.529C181.354 661.758 185.616 665.867 191 666.775C204.901 669.12 220.897 667 235 667L384 667L435 667C441.202 667 450.537 668.727 455.985 665.258C470.457 656.039 456.073 644.293 459 632L483 631.677L500 636C500 629.603 502.257 617.92 498.972 612.3C493.705 603.289 477.082 604.918 469.059 597.671C458.537 588.168 464.819 545.357 443 555L422 496C433.564 492.979 429.284 481.704 419 488C416.521 479.855 403.286 474.523 396 470.742C373.605 459.118 353.715 451.531 328 451C333.954 470.677 355.414 476.645 364.244 494C366.672 498.773 373.646 507.391 369.268 512.57C366.567 515.766 360.871 516.174 357 515.903C346.938 515.198 329.916 513.2 322.394 505.61C317.688 500.861 317.98 493.414 310.96 490.765C294.32 484.484 278.287 496.969 262 500.232C257.333 501.167 254.335 498.36 250 497.394C243.288 495.898 236.647 497.394 230.015 494.66C220.371 490.686 204.467 484.643 197.357 476.701C194.422 473.421 196.857 469.097 195.015 465.424C191.078 457.571 183.776 456.941 178.519 450.895C175.402 447.311 174.311 441.555 168.956 441.059C159.626 440.194 152.852 444.864 144 445.826C123.316 448.075 104.357 445.091 86.1042 456.413C78.0454 461.411 80.3623 475.891 72 478.338C62.176 481.213 70.2162 460.703 58.0448 462.492C51.007 463.527 56.0661 470.849 53.8819 474.682C52.23 477.581 47.7978 476.99 45 477z" style="fill:#cc05ff; stroke:none;"/>
<path d="M73 553C77.4675 551.938 82.2983 550.275 85.2724 546.532C88.3361 542.677 88.1692 536.46 93.9614 535.042C99.3942 533.712 100.515 542.474 101.671 546C105.647 558.129 102.648 571.33 105 584L106 584L107.103 555L113 544L115 544L122 551C123.746 541.151 117.945 536.5 129 531C133.602 542.95 130.689 551.143 130.789 563C130.943 581.047 135.723 600.043 134.498 618C134.211 622.208 131.554 625.905 130.685 630C129.583 635.198 132.669 637.873 133.743 642.576C134.482 645.813 133.153 649.701 133.01 653C132.911 655.279 132.851 661.031 129.093 660.369C125.958 659.817 124.808 642.656 125.924 639.83C129.496 630.783 124.369 627.249 123.981 618.424C123.642 610.695 126.306 602.89 125.961 595C125.46 583.562 122.008 572.435 122 561L121 561L114 592L105 587L99.2747 603L101.856 623L98 636C89.3046 626.835 96.1349 609.333 92.652 598C91.2106 593.31 87.2817 583.531 82 591L81 591C81.877 577.229 86.1254 566.269 73 556C69.7291 567.612 72.215 576.459 71.625 588C70.9017 602.15 67.2896 615.734 67.0841 630C66.9525 639.138 71.5862 652.571 64 660C63.4955 635.555 59.7295 611.327 59.1289 587C58.9306 578.97 61.57 571.098 60.9066 563C60.5383 558.504 58.2969 554.52 58.0432 550C57.4749 539.876 61.3052 531.829 60.3395 522C59.6931 515.421 59.9438 505.477 61.3873 499C63.4075 489.935 69.6386 479.886 56 478L52.054 517L55.2955 539L49.135 551L45.1705 567L48.9707 635L42 667L189 667L189 666C184.523 663.645 180.122 660.825 175 660.185C169.734 659.528 163.533 661.368 159.105 657.682C155.275 654.494 154.947 650.09 152.698 646.015C145.507 632.98 140.018 626.421 144.363 611C146.669 602.814 143.739 597.469 154 595C151.808 591.618 148.392 592.989 145.718 590.411C139.932 584.833 148.582 581.997 153 583C156.194 572.064 143.183 563.469 145 552L154 561L161 534C163.08 537.296 165.056 544.34 169.105 545.579C180.093 548.94 180.698 535.317 182.492 530.039C183.638 526.664 187.356 525.066 188.972 521.961C191.407 517.282 189.02 507.663 186.49 503.303C184.718 500.25 180.848 500.627 178.09 499.012C171.344 495.061 163.577 486.851 162 501L161 501L154 488L153 488L145 496C141.36 488.201 136.05 486.05 129 491C125.756 484.04 124.675 481.749 129 475L130 475C136.092 481.08 145.972 478.402 153 475C150.451 470.865 147.971 460.624 144.486 458.013C134.964 450.88 120.924 457.773 112.961 462.468C110.156 464.121 106.217 464.467 104.279 467.303C99.5415 474.233 106.853 481.395 100.782 487.891C96.8703 492.078 92.5725 490.638 88.0895 493.027C85.0184 494.664 83.3104 497.941 79.9853 499.258C76.4773 500.648 72.3891 499.667 69.4336 502.514C65.3064 506.49 67.5973 513.092 67.9097 518C68.7291 530.872 68.1935 540.447 73 553z" style="fill:#787878; stroke:none;"/>
<path d="M1 458C5.42279 467.559 6.19005 470.384 4 481L27 482.666L40.8665 484.799L45 476L25 470.09L11.5309 467.577L13 458L1 458z" style="fill:#0b66ff; stroke:none;"/>
<path d="M185 475C178.782 491.726 195.043 493.477 201 506L204 506C208.011 489.107 195.567 484.436 185 475z" style="fill:#787878; stroke:none;"/>
<path d="M197 498L187 504C189.792 522.887 203.023 507.866 197 498M418 513L418 515L420 515L420 513L418 513z" style="fill:#96053d; stroke:none;"/>
<path d="M129 517L128 525L130 525L129 517z" style="fill:#cc05ff; stroke:none;"/>
<path d="M8 525L12 523C9.58778 521.645 8.56762 522.351 8 525z" style="fill:#0b66ff; stroke:none;"/>
<path d="M80 526L81 533C83.4582 530.205 83.1039 528.09 80 526M113 527L113 533C115.969 531.002 115.368 529.385 113 527z" style="fill:#cc05ff; stroke:none;"/>
<path d="M0 531C0 551.643 -4.409 578.226 1.65972 598C3.98837 605.587 4.49655 615.04 13 618L6.09028 648L9.3179 658.393L22.8302 656.289L33 659C33.9621 654.039 36.4694 648.041 36.0409 643C35.7733 639.852 33.7069 637.207 33.6543 634C33.5426 627.185 36.7077 621.398 28 619C40.0313 610.415 46.7691 599.745 45.1659 585C44.6469 580.227 43.9196 573.321 39.5818 570.279C31.9279 564.91 23.1815 572.289 16.3032 563.956C7.47443 553.26 25.4759 532.855 8 531.105C5.36296 530.841 2.64741 531 0 531z" style="fill:#0b66ff; stroke:none;"/>
<path d="M0 594L0 667C7.26504 667 12.4895 667.31 14 659C-1.26485 657.836 10.2402 626.706 13 618C3.24506 612.818 5.19257 602.262 0 594M45 598L46 599L45 598M44 599C39.9676 606.664 35.5867 613.423 28 618L28 619C36.0991 622.352 33.3248 627.033 33.3696 634C33.3914 637.385 35.6224 640.136 35.8387 643.424C36.1654 648.388 33.6414 654.033 33 659L26 657L29 667L42 667C46.0699 645.475 54.4963 620.841 44 599M112 613C107.088 621.641 107.592 627.792 113 636C118.267 629.473 118.244 619.985 114 613L112 613z" style="fill:#cc05ff; stroke:none;"/>
<path d="M459 632C454.742 646.404 469.957 654.658 454 666L454 667L500 667L500 636L483 631.383L459 632z" style="fill:#503232; stroke:none;"/>
<path d="M11 667L29 667L25 655C17.2566 657.477 14.1687 659.294 11 667z" style="fill:#787878; stroke:none;"/>
</svg>