<?xml version="1.0" standalone="no"?>
<!DOCTYPE svg PUBLIC "-//W3C//DTD SVG 20010904//EN"
 "http://www.w3.org/TR/2001/REC-SVG-20010904/DTD/svg10.dtd">
<svg version="1.0" xmlns="http://www.w3.org/2000/svg"
 width="669.000000pt" height="512.000000pt" viewBox="0 0 669.000000 512.000000"
 preserveAspectRatio="xMidYMid meet">
<metadata>
Created by potrace 1.16, written by Peter Selinger 2001-2019
</metadata>
<g transform="translate(0.000000,512.000000) scale(0.100000,-0.100000)"
fill="#000000" stroke="none">
<path d="M0 4751 l0 -370 57 -21 c32 -12 91 -40 132 -62 l74 -41 112 6 c135 6
182 24 240 88 112 125 155 135 280 63 86 -50 231 -104 277 -104 30 0 133 40
176 68 34 22 96 16 145 -15 35 -22 49 -25 97 -20 31 2 90 19 132 36 102 43
147 42 282 -3 59 -20 120 -36 134 -36 l27 0 -2 -337 c-2 -189 1 -363 7 -397 6
-34 13 -214 16 -401 3 -187 12 -398 20 -470 19 -175 2 -275 -48 -291 -21 -6
-38 -62 -38 -124 0 -56 -13 -70 -64 -70 -34 0 -45 -6 -82 -46 -40 -44 -43 -46
-75 -36 -19 5 -87 10 -151 10 -89 1 -125 5 -150 18 -27 14 -50 16 -129 11 -85
-5 -100 -9 -124 -31 -16 -15 -43 -27 -68 -30 -184 -23 -221 -31 -236 -49 -34
-40 -58 -43 -256 -39 -265 6 -268 5 -322 -17 -101 -42 -367 -88 -432 -75 l-31
7 0 -987 0 -986 649 0 648 0 6 89 c7 96 0 148 -32 251 -21 65 -61 286 -61 336
0 48 61 174 113 232 27 32 60 80 72 107 44 97 74 114 472 269 51 20 98 36 104
36 13 0 126 44 196 77 29 13 117 40 195 59 78 19 187 52 242 73 56 22 126 45
156 51 30 7 71 21 90 30 19 10 51 21 70 25 19 4 113 32 209 61 95 30 178 54
183 54 13 0 187 66 295 111 50 21 178 61 285 89 221 57 238 63 295 102 23 16
73 45 110 64 101 53 116 71 113 136 -3 88 -3 205 3 573 7 394 12 489 32 546
10 28 13 63 8 120 l-6 80 32 33 c29 30 36 33 64 25 59 -17 62 -26 62 -182 0
-224 16 -239 245 -244 263 -5 384 -13 440 -28 30 -8 82 -15 115 -15 34 0 112
-7 175 -15 63 -8 216 -19 340 -24 170 -8 243 -15 300 -30 60 -17 106 -21 235
-21 167 0 187 -4 223 -48 10 -13 12 194 12 1041 l0 1057 -3345 0 -3345 0 0
-369z m3643 -1523 c55 -22 75 -46 103 -131 15 -45 37 -102 49 -127 119 -238
118 -244 -9 -255 -120 -10 -123 -13 -90 -105 31 -87 32 -138 4 -213 -22 -56
-26 -117 -10 -147 14 -27 -43 -108 -98 -139 -40 -21 -48 -22 -85 -11 -45 13
-63 32 -105 105 -25 43 -30 69 -41 178 -12 123 -11 129 9 162 29 46 54 135 42
147 -15 15 -81 27 -142 28 -37 0 -66 7 -87 20 -18 11 -33 21 -33 22 0 2 7 24
14 49 17 55 40 103 71 144 26 35 89 158 100 195 17 58 45 89 88 97 47 10 177
-2 220 -19z"/>
<path d="M6676 2768 c-23 -184 -28 -272 -22 -448 8 -262 7 -287 -8 -331 -11
-31 -11 -42 -1 -56 7 -10 20 -38 28 -63 15 -42 16 -13 17 448 0 270 -2 492 -4
492 -3 0 -7 -19 -10 -42z"/>
<path d="M6679 1428 c-6 -25 -7 -314 -1 -373 8 -67 10 -43 11 148 0 125 -1
227 -4 227 -3 0 -5 -1 -6 -2z"/>
<path d="M6680 911 c0 -68 -14 -99 -47 -107 -15 -4 -42 -19 -60 -34 -17 -15
-35 -29 -40 -31 -10 -5 -55 -65 -73 -99 -8 -14 -22 -54 -31 -90 -16 -57 -16
-68 -3 -99 8 -19 14 -56 13 -81 -1 -47 29 -162 64 -242 l20 -47 -27 -41 -26
-40 110 0 110 0 0 480 c0 264 -2 480 -5 480 -3 0 -5 -22 -5 -49z"/>
<path d="M1910 25 l-23 -25 83 0 c46 0 81 2 79 4 -2 3 -22 11 -44 19 -22 8
-47 17 -55 21 -10 4 -25 -3 -40 -19z"/>
</g>
</svg>
