<?xml version="1.0" ?><svg height="500" version="1.0" width="500" xmlns="http://www.w3.org/2000/svg">\n<path d="M0 0L0 32L1 32C7.62032 20.6143 5.42889 12.195 7 0L0 0z" style="fill:#ffa960; stroke:none;"/>\n<path d="M7 0L6.87423 17L0.498457 33L0 58C6.26595 58.2691 15.387 57.8254 19.6821 63.0586C22.205 66.1326 20.7654 72.9894 24.3179 74.7878C26.9039 76.0969 29.8899 73.9358 32.5756 74.1551C40.3078 74.7863 47.9432 77.4164 56 77.4614C62.3021 77.4967 66.5336 71.3016 72 69.1034C78.011 66.6861 84.867 70.973 90.9961 68.8125C96.2609 66.9567 97.7939 60.6094 103.015 58.9869C106.913 57.7759 110.975 60.2521 115 59.6566C122.125 58.6025 128.832 54.7541 136 53.4645C141.266 52.5171 146.827 53.7702 151.999 52.2762C156.86 50.8725 162.96 43.4455 157.678 38.9946C151.767 34.0129 142.763 34.8537 136 32C156.926 27.0157 173.071 30.3344 194 32L194 33L165 40L165 42C170.843 45.7097 176.246 51.3248 183 53.3511C188.691 55.0585 195.142 53.5669 201 54.2863C221.276 56.7764 242.522 57.4836 263 57.9854C271.536 58.1945 280.617 56.3376 289 57.2863C304.214 59.008 328.527 67.3973 340.772 53.8951C345.663 48.5015 344.45 40.5552 343.439 34C341.706 22.7632 340 11.4015 340 0L7 0z" style="fill:#fffed8; stroke:none;"/>\n<path d="M340 0C340 11.522 341.861 22.6173 343.289 34C344.102 40.4878 345.456 47.5569 340.772 52.9568C328.157 67.4978 304.969 58.6638 289 57.1698C260.316 54.4862 230.808 57.8242 202 54.2863C196.142 53.5669 189.691 55.0586 184 53.3511C176.824 51.1982 171.765 44.9747 165 42L165 40L194 33L194 32C173.649 29.3718 156.17 26.0246 136 32C141.276 35.1607 158.901 34.3604 159.199 43.0432C159.641 55.9174 137.696 52.5354 130 54.7099C124.873 56.1585 119.278 59.0835 114 59.5779C109.916 59.9605 106.1 57.3792 102.043 58.9082C97.3105 60.6919 95.7502 66.3684 90.9961 68.338C85.1574 70.7569 78.8711 67.1176 73 68.4337C67.617 69.6403 64.0694 74.5921 59 76.4892C54.9289 78.0127 46.4721 76.8735 42 76.6173C38.9664 76.4435 26.4368 75.3862 24.3179 74.071C20.8276 71.9045 22.5741 66.2072 20.3966 63.0586C16.5843 57.5461 6.07278 58.1254 0 58L0 209L1 209C8.35906 197.841 16.1304 184.108 12.2269 170.004C10.8679 165.094 4.58407 163.404 4.20679 157.996C3.81764 152.418 9.41152 148.953 8.81096 143C8.0271 135.23 1.43459 122.612 4.60339 115.189C6.99926 109.576 14.3491 112.328 19 111.535C31.6729 109.377 43.2612 107.837 56 108.236C59.1404 108.334 62.8295 106.302 65.8519 107.504C69.2482 108.855 68.8165 113.194 70.8927 115.682C73.0905 118.316 76.0962 117.355 78.8827 118.602C80.1063 119.149 81.3867 120.243 80.7932 121.741C79.5561 124.863 65.2364 125.378 71.7577 132.397C74.0603 134.875 79.893 134.724 83 136.395C94.9495 142.822 106.153 143.19 119 146.556C123.969 147.858 128.186 151.248 133 153L133 154C128.718 155.233 124.542 158.214 120 158.208C109.214 158.193 103.062 150.831 95 162C106.324 170.102 109.126 163.692 121 163.985C126.282 164.116 131.158 167.268 136 169C125.231 181.599 111.334 168.492 98 173.035C94.788 174.129 87.6229 173.016 86.3457 177.129C84.369 183.494 97.2549 181.145 96.3688 185.938C95.7014 189.549 86.5127 195.316 83.0154 195.199C71.9573 194.83 78.4521 178.593 72 175C69.1518 186.991 70.4616 199.866 59.7106 208.62C56.1602 211.511 51.9925 211.322 48 213.086C41.3831 216.009 36.1286 220.586 29 222.78C20.8783 225.28 14.597 224.423 9 232L8 232L1 210L0 210L0 243C0 246.846 -1.19021 253.222 1.02778 256.582C9.44584 269.334 24.4851 262.31 36 265.572C41.1861 267.041 45.1355 272.713 51 271.527C59.4033 269.828 65.5607 263.795 75 264.379C83.4627 264.902 83.5973 271.511 90.0548 274.532C100.61 279.469 107.75 273.061 117 269L115 265C122.884 262.657 125.854 256.505 128 249C137.575 252.175 147.926 261.893 157.397 251.211C160.095 248.167 158.875 244.06 162 241L162 250C168.091 245.608 165.459 233.676 166.174 227C167.348 216.035 172.214 206.237 172.791 195C173.314 184.822 170.799 175.314 172.439 165C176.508 139.41 198.029 122.836 212 103L190.858 113.498L184.941 124.197L164 129C167.182 134.291 172.919 146.785 171.558 153C170.284 158.815 163.94 162.703 162.924 169C161.666 176.797 163.378 184.861 162 193L154 178L145 183L139 169L147 162L147 161L137 137C144.27 133.234 147.441 130.001 156 130L156 129L137 122L147 114L136 105L149 98L149 96L139 88C144.415 85.5321 150.028 86.7647 155 84.5934C166.542 79.5526 177.531 72.5355 190.961 73.2191C199.171 73.637 209.887 78.7147 218 81L215 100C220.556 95.4772 224.063 89.0425 230 84.7886C243.322 75.2433 265.735 70.6423 282 71.0146C290.198 71.2023 298.403 75.5489 306 75.5733C313.927 75.5988 320.325 70.1329 329 71.1844C351.578 73.9211 374.325 92.7307 390.999 107.13C402.639 117.183 415.156 129.646 424.367 141.985C428.59 147.644 436.054 160.224 443.155 162.288C446.925 163.384 448.97 159.35 451.325 157.299C455.41 153.739 460.307 153.876 463.656 148.981C465.939 145.645 464.888 140.337 467.603 137.603C473.425 131.74 492.348 131.014 500 132L500 0L340 0z" style="fill:#ffa960; stroke:none;"/>\n<path d="M151 500L441 500C440.414 486.349 441.795 472.631 441.544 459C441.086 434.097 437.637 408.836 438.259 384C438.539 372.827 437.383 361.05 438.09 350C438.539 342.989 441.414 336.053 440.826 329C439.892 317.779 440.782 303.656 438.467 293C436.522 284.049 429.938 275.475 439 268L438 265C446.253 265.635 450.034 274.973 455.325 280.424C463.316 288.656 475.549 291.429 483.363 298.589C486.909 301.838 489.384 308.64 491.305 313C494.16 319.48 488.916 322.081 488.461 328C488.034 333.571 495.637 338.965 500 341L500 132C490.762 130.215 484.897 133.056 476 134.985C473.412 135.547 468.811 135.342 467.028 137.603C464.878 140.328 465.751 144.866 463.656 147.995C460.184 153.181 455.776 153.166 451.325 156.585C448.932 158.423 446.848 163.061 443.155 161.745C432.803 158.056 424.082 139.925 416.576 132.285C393.189 108.486 366.123 78.743 332 71.5178C322.069 69.415 315.017 75.2798 306 75.216C299.49 75.17 291.963 71.5664 285 71.0895C271.96 70.1965 255.427 73.4011 243 77.4676C230.279 81.6302 223.57 90.6544 214.91 100C199.276 116.871 180.22 135.041 173.746 158C169.314 173.718 174.005 189.184 171.7 205C170.65 212.199 166.954 218.712 166.174 226C164.989 237.055 166.799 249.142 164.482 260C162.273 270.353 156.532 279.046 156.039 290C155.5 301.978 155.4 317.139 157.213 329C158.035 334.378 161.769 338.412 161.981 344C162.692 362.666 154.835 378.855 154.039 397C153.501 409.287 156.154 423.074 157.733 434.961C158.134 437.976 161.569 439.915 161.519 442.931C161.441 447.685 153.61 446.474 153.033 451.109C152.679 453.954 155.444 456.203 155.636 459C155.853 462.174 153.29 464.755 154.147 468C154.849 470.656 157.581 472.724 157.595 475.576C157.611 478.709 154.446 482.03 153.468 485C151.878 489.832 151.924 495.024 151 500z" style="fill:#232426; stroke:none;"/>\n<path d="M184 74L184 75L195 75L195 73L184 74z" style="fill:#fffed8; stroke:none;"/>\n<path d="M139 88L149 96L149 98L136 105L147 114L137 122C143.656 126.611 147.744 128.977 156 129L156 130C147.437 130 143.806 131.839 137 137C138.911 139.719 142.641 142.675 143.324 146C144.702 152.709 140.593 155.121 147 161L147 162L139 169L145 183L154 178C155.368 183.967 156.332 189.848 162 193C164.194 184.709 161.771 177.403 163.066 169.424C164.068 163.245 169.86 159.542 171.878 154C173.813 148.687 167.502 133.277 164 129L185.852 124.197L193.133 112.213L213.922 100.737L218 81C206.842 76.7906 188.917 71.5341 177 74.4197C168.816 76.4016 161.672 81.5018 154 84.3935C148.573 86.4392 144.429 84.483 139 88M74 106C80.2158 109.464 83.5606 107.144 90 106C85.0985 103.644 78.7552 103.151 74 106M6 130L7 130L9 124L13 136L27 137L27 138C15.7728 143.539 26.3271 149.898 33 153C24.0671 159.153 22.091 168.443 10 166C13.1227 172.157 13.8654 185.559 10.8364 192C8.21311 197.578 2.31586 202.752 1.22145 209C0.20089 214.827 4.58102 227.373 8 232L9 232C16.5282 224.821 22.936 225.474 32 222.085C38.2098 219.763 43.0788 215.702 49 213.086C55.1867 210.352 59.8767 210.463 64.3904 204.572C71.0511 195.879 70.1716 184.997 72 175C77.4008 179.74 72.2078 194.081 82.0432 195.508C86.2372 196.116 96.3488 190.332 97.0787 185.938C97.8902 181.053 85.1664 183.366 87.2068 177.129C88.5073 173.153 94.8906 174.227 98 173.363C109.581 170.146 128.477 181.927 136 169L120 163.652L105 167.302L95 162C105.539 151.715 108.779 159.331 121 158.498C125.214 158.21 129.175 155.591 133 154C117.821 139.787 90.6912 144.11 73.2438 132.972C63.9035 127.01 81.7932 124.023 81.7932 121C81.7932 119.414 80.2169 118.697 78.9367 118.313C75.7756 117.366 73.1038 117.834 70.8927 114.852C69.0599 112.38 69.2381 107.975 65.8519 106.927C62.8254 105.99 59.4916 108.055 56.4244 108.072C43.6283 108.142 31.7818 108.925 19 111.331C14.9475 112.094 8.83765 109.753 5.60339 112.894C1.609 116.774 4.97262 125.506 6 130z" style="fill:#9a6438; stroke:none;"/>\n<path d="M8 124L8 141C14.8685 137.393 12.6493 128.811 8 124z" style="fill:#99633d; stroke:none;"/>\n<path d="M257 138L256 129C250.631 127.773 238.644 124.136 233.738 128.028C231.087 130.131 230.793 135.969 229.536 139C222.751 155.369 223.617 166.919 223.946 184C224.135 193.823 223.038 207.509 220.57 217C219.543 220.951 216.569 223.815 216.109 228C215.116 237.02 218.635 243.027 221.907 251C228.289 266.549 230.73 279.872 249 284.251C254.756 285.63 260.222 283.648 266 284.171C294.982 286.791 319.312 283.488 343 265.427C346.853 262.49 352.195 260.91 355.606 257.582C360.729 252.584 365.064 236.101 364.681 229C364.259 221.159 354.13 213.167 349.129 207.896C343.993 202.483 341.696 194.73 336.79 189C330.627 181.802 323.029 177.579 316.133 171.471C311.522 167.389 311.017 157.176 305.606 154.603C298.996 151.461 290.745 157.268 284.148 154.397C280.258 152.703 281.111 147.413 278.486 144.529C273.142 138.659 264.329 138.001 257 138M264 129L266 131L266 129L264 129z" style="fill:#282924; stroke:none;"/>\n<path d="M13 146C1.08128 151.562 1.78697 168.686 16.9961 167.167C23.1589 166.551 28.7359 157.151 33 153C26.467 148.727 17.6233 145.014 27 138C18.7951 131.895 10.1727 135.604 13 146z" style="fill:#fffed8; stroke:none;"/>\n<path d="M119 137L120 141L122 141L124 137L119 137M10 140L9 148L13 146L12 140L10 140z" style="fill:#9a6438; stroke:none;"/>\n<path d="M295 145C298.003 150.352 303.581 151.323 306 145L295 145z" style="fill:#282924; stroke:none;"/>\n<path d="M159 169C144.063 159.918 151.08 185.584 159 169z" style="fill:#ffa960; stroke:none;"/>\n<path d="M145 187L140 194L150 194L145 187z" style="fill:#9a6438; stroke:none;"/>\n<path d="M160 241C158.447 246.239 159.074 249.828 154 253L154 254L162 252L162 241L160 241M128 249C125.041 256.212 122.454 261.719 115 265L115 267C126.709 269.788 148.119 266.553 153 254C141.679 257.661 138.393 251.068 128 249z" style="fill:#feb982; stroke:none;"/>\n<path d="M163 249C158.091 253.929 149.48 254.939 147.721 263C146.634 267.983 151.829 275.937 153 281C162.786 273.028 165 260.887 165 249L163 249M0 257L0 338L1 338C3.21058 334.116 7.25416 327.627 6.79089 323C6.44387 319.534 2.90492 317.452 2.49537 314C1.8385 308.463 7.71215 298.409 12.0193 295.309C20.6744 289.078 31.5983 296.978 41 297.39C45.7811 297.599 51.3393 295.309 55.9807 296.553C59.2599 297.432 61.468 300.471 60.6628 303.898C59.313 309.643 40.8895 307.594 35.1698 311.353C31.3375 313.871 26.463 318.431 25.3179 323C24.2321 327.332 26.3189 332.751 23.821 336.721C20.3608 342.221 12.3048 340.296 9 347L17 345L19 347L25 344C25.8924 347.895 27.6676 351.961 26.7184 356C25.9998 359.058 21.1927 364.279 23.1358 367.397C24.5639 369.688 28.7733 368.828 31 369.588C37.9714 371.966 47.3438 374.459 53.9414 377.8C58.7594 380.24 57.7382 385.748 60.0586 389.996C62.2927 394.087 66.3588 396.868 68.3881 401.015C72.6777 409.78 67.8258 420.108 63 427C72.7916 431.361 85.3854 431.333 77 418C85.398 416.169 91.0878 392.811 94 385L88 387C87.2902 369.332 96.2894 371.382 110 368.101C115.679 366.742 121.19 363.605 127 362.992C134.555 362.195 140.448 366.295 145 358L146 358C146.242 369.733 143.97 393.049 154 401C154.202 376.551 168.418 355.339 158 331C156.849 331.671 155.299 332.869 153.955 333.191C140.585 336.392 151.646 311.563 156 328L157 328C157 314.759 158.514 300.639 154 288L153 288C148.699 295.634 134.034 295.788 126 295.985C115.105 296.253 100.501 298.343 90 295.363C80.8465 292.765 74.4082 283.746 65.9961 281.299C62.0893 280.163 58.0116 283.018 54 282.866C47.2686 282.611 38.2593 276.852 43 270L43 269C36.8802 264.335 28.4618 263.676 21 265L25 276C15.3202 277.217 11.3046 274.935 15 265L0 257z" style="fill:#fffed8; stroke:none;"/>\n<path d="M141 265L147 265L146 261L141 265z" style="fill:#ffa960; stroke:none;"/>\n<path d="M71 284C74.5487 280.146 80.0327 280.065 83.6813 276.442C88.9271 271.233 83.4728 265.662 77.9992 264.62C67.444 262.612 60.3446 268.742 51 271.169C48.3349 271.861 38.5998 268.612 40.3457 274.98C43.7352 287.343 62.9782 280.273 71 284z" style="fill:#232426; stroke:none;"/>\n<path d="M86 273C83.1551 276.675 72.7557 279.456 71.8318 283.262C70.4719 288.865 84.9926 294.225 89 295.363C102.89 299.305 123.941 296.653 138 294.439C143.411 293.587 150.877 294.106 153 288L154 288L156 291L158 276L157 276L153 281C152.331 276.468 151.05 268.603 146.775 266.028C141.271 262.712 121.889 266.846 116 268.97C110.623 270.909 106.843 275.018 101 275.955C95.6073 276.82 91.0673 274.383 86 273z" style="fill:#fffed5; stroke:none;"/>\n<path d="M438 267L442 266L438 267z" style="fill:#ffa960; stroke:none;"/>\n<path d="M439 296C450.099 295.39 446.484 284.581 454 280L444 265C428.091 270.839 436.215 284.275 439 296z" style="fill:#fffed5; stroke:none;"/>\n<path d="M25 276C24.9464 274.313 25.0042 272.616 24.436 270.995C19.4899 256.885 4.3934 276.948 18.9961 276.867C21.0133 276.855 23.0273 276.366 25 276z" style="fill:#232426; stroke:none;"/>\n<path d="M158 275L159 276L158 275z" style="fill:#fffed5; stroke:none;"/>\n<path d="M451 280C449.977 284.419 446.147 290.503 447.187 295C449.941 306.916 460.357 302.682 467.486 305.492C471.294 306.992 475.771 312.316 479 315L461 320L467 332C469.438 329.693 471.547 326.011 475.015 325.187C480.955 323.775 486.547 330.196 491.062 322.941C501.201 306.647 473.717 293.066 464 286.954C459.381 284.049 456.709 280.43 451 280z" style="fill:#fffed8; stroke:none;"/>\n<path d="M14 283L20 283L14 283z" style="fill:#fffed5; stroke:none;"/>\n<path d="M0 338L0 339L9 347C12.8726 341.8 20.5827 342.066 23.821 337.487C26.6409 333.499 23.0325 329.211 23.527 325.09C24.0574 320.668 31.7123 314.454 35.1698 311.966C40.8505 307.878 59.2125 309.822 60.6813 304.787C61.6725 301.389 60.4689 297.632 56.9414 296.518C52.3901 295.08 46.7299 297.236 42 297.1C32.0863 296.813 19.9947 288.487 11.0579 295.305C7.056 298.358 0.797073 309.884 2.07099 315C2.84608 318.113 6.30481 320.165 6.49614 323.424C6.76794 328.055 2.53772 334.405 0 338z" style="fill:#232426; stroke:none;"/>\n<path d="M148 292L149 293L148 292M146.667 293.333L147.333 293.667L146.667 293.333M144.667 294.333L145.333 294.667L144.667 294.333M439 296C437.896 301.949 436.534 310.618 440.879 315.682C443.634 318.894 447.391 317.338 451 317.675C461.052 318.614 469.073 319.206 479 315C476.387 311.919 470.952 305.89 466.91 305.068C463.691 304.413 460.913 306.569 457.715 305.012C449.738 301.128 448.616 295.275 439 296M129 304L128 315C133.249 313.252 131.862 307.637 129 304z" style="fill:#fffece; stroke:none;"/>\n<path d="M112.333 313.667L112.667 314.333L112.333 313.667M439 314L438.129 384L441 458L443 458C444.794 446.087 455.092 445.486 460.637 436.895C466.928 427.147 465.614 414.964 467 404L468 404C469.145 417.231 467.664 430.753 483 433.464C485.762 433.952 489.795 435.773 492.142 433.382C496.721 428.717 492.514 416.1 493.429 410C494.264 404.435 498.169 401.148 499.566 396C500.818 391.391 500 385.742 500 381C500 368.3 504.449 346.413 495 337L491 340L488 327C479.059 326.541 472.758 321.414 468 332L467 332C460.454 315.389 450.184 322.638 439 314z" style="fill:#fffed5; stroke:none;"/>\n<path d="M151.054 321.721C144.347 322.801 145.609 335.379 152.942 334.052C159.006 332.955 156.738 320.805 151.054 321.721z" style="fill:#fffedf; stroke:none;"/>\n<path d="M23 322L24 330L25 330L25 322L23 322z" style="fill:#fffed5; stroke:none;"/>\n<path d="M119 330L119 331L126 331L119 330z" style="fill:#fffedf; stroke:none;"/>\n<path d="M459 331L455.361 346.961L451 357C462.459 355.273 463.396 340.148 459 331M491 334L491 340L494 339L491 334z" style="fill:#ffffce; stroke:none;"/>\n<path d="M0 339L0 372L8 371C4.33716 359.177 11.3189 347.001 0 339z" style="fill:#fffed8; stroke:none;"/>\n<path d="M17 357L16 357L15 347L8 347C6.36517 354.921 3.44874 361.253 7 369C21.7242 365.543 30.2918 360.549 25 344C18.0285 345.84 17.0557 350.362 17 357z" style="fill:#fffed5; stroke:none;"/>\n<path d="M16 345L16 357L17 357L16 345z" style="fill:#fffece; stroke:none;"/>\n<path d="M136.39 349.176C131.804 351.269 133.4 361.008 138.956 358.824C144.563 356.62 141.573 346.811 136.39 349.176z" style="fill:#fffed5; stroke:none;"/>\n<path d="M145 358C138.99 365.456 135.062 361.79 127 362.709C120.818 363.414 115.038 366.656 109 368.101C95.2785 371.384 86.6164 369.321 88 387L106.856 384.393L113.629 377.769L118 383C135.014 381.464 127.523 396.457 128.074 406C128.335 410.511 132.847 416.489 138 414.759C141.277 413.659 143.817 410.482 147 409L149 419L150 419L153.581 403L146.619 380L145 358z" style="fill:#fffedf; stroke:none;"/>\n<path d="M452 373L451 358C440.597 360.191 442.105 370.956 452 373z" style="fill:#fffed8; stroke:none;"/>\n<path d="M0 500L128 500L128 499L116 492C125.263 483.707 118.391 478.265 122 468L117.397 457.009L105.105 454.357L94.8951 441.434L72.3032 443.637L62 428C68.3713 421.606 72.7529 410.275 68.8958 401.015C67.1333 396.783 62.9768 393.921 60.6343 389.996C58.6199 386.621 58.8823 380.563 55.6821 378.278C50.781 374.778 44.1968 376.051 39 373.548C33.6033 370.949 21.0559 363.621 15 365.296C-1.02493 369.726 0 386.088 0 399L0 500z" style="fill:#fffece; stroke:none;"/>\n<path d="M6 371L7 372L6 371M0 372L0 378L5 372L0 372z" style="fill:#fffedf; stroke:none;"/>\n<path d="M108 385L118 383C114.413 373.99 110.85 378.656 108 385z" style="fill:#fffed8; stroke:none;"/>\n<path d="M82 416C90.8121 412.301 94.1727 413.893 102 419L102 420C94.9978 426.98 90.9637 436.618 82 425C76.3375 431.411 72.5223 429.781 65 428C66.8747 431.583 68.6541 442.744 72.3032 444.164C78.0998 446.421 84.7881 439.466 90.9992 440.523C98.5615 441.811 98.6731 449.201 103.39 453.681C105.871 456.037 117.624 457.699 120.941 456.778C128.322 454.727 127.467 434.215 128.225 428.285C128.654 424.934 131.558 422.537 131.573 419C131.597 413.681 127.478 409.648 128.214 404C128.956 398.3 133.132 390.807 128.397 385.51C122.902 379.363 113.369 383.933 107 385.312C103.269 386.12 99.5811 383.034 96.1088 384.392C92.3681 385.855 91.8268 390.743 90.5355 394C87.5582 401.509 82.7286 407.707 82 416z" style="fill:#fffed5; stroke:none;"/>\n<path d="M100 384L101 385L100 384M102 385L102 386L107 386L102 385z" style="fill:#fffed8; stroke:none;"/>\n<path d="M499 397C494.538 403.641 492.921 408.936 493.004 417C493.051 421.612 495.194 427.592 492.682 431.837C490.337 435.799 485.601 433.621 482 433.169C467.543 431.353 469.636 415.137 468 404L467 404C464.976 414.901 466.782 426.004 460.637 435.957C456.392 442.832 447.5 443.943 444.133 452C438.282 466.004 439.83 485.175 441 500L500 500L500 428L499 397z" style="fill:#fffece; stroke:none;"/>\n<path d="M153 406L151.079 421L153.356 432.907L142.214 443.174L123.185 466.054L121.864 483.985L116 492C120.554 494.002 124.231 498.27 129 499.566C133.012 500.657 148.03 501.918 150.821 498.397C153.285 495.288 152.381 488.805 153.814 485C155.009 481.828 158.188 478.543 157.878 475C157.619 472.032 154.968 469.928 154.572 467C154.145 463.846 156.674 461.197 156.061 458C155.615 455.674 153.337 453.59 153.755 451.109C154.48 446.794 161.015 447.805 162.029 443.787C162.878 440.422 158.826 438.047 158.202 434.961C156.414 426.115 158.518 414.032 153 406M22 410L22 412L27 412L27 410L22 410z" style="fill:#fffed5; stroke:none;"/>\n<path d="M129 411C132.582 423.59 120.164 441.871 130 452C121.205 454.911 119.001 459.254 119 468L123 468L143.105 443.174L153.667 432.907L147 409C138.598 411.357 137.721 416.213 129 411z" style="fill:#fffed8; stroke:none;"/>\n<path d="M68.3333 410.667L68.6667 411.333L68.3333 410.667z" style="fill:#fffed5; stroke:none;"/>\n<path d="M128 410L129 411L128 410z" style="fill:#fffed8; stroke:none;"/>\n<path d="M77 418C84.3481 434.511 92.8974 432.875 102 420C93.834 409.01 87.2004 414.771 77 418M150 418L150 421L151 421L150 418z" style="fill:#fffece; stroke:none;"/>\n<path d="M62.6667 427.333L63.3333 427.667L62.6667 427.333z" style="fill:#fffed5; stroke:none;"/>\n<path d="M126 449L125 454L130 452L126 449z" style="fill:#fffece; stroke:none;"/>\n<path d="M62 467C65.673 470.989 82.9634 477.938 85.2485 469.035C87.9818 458.385 65.4333 465.172 62 467M93 467L98 475L103 468L93 467M96 492C92.9413 489.034 85.9374 479.458 81.99 478.921C75.898 478.093 77.6956 487.789 80.0856 490.397C83.4026 494.016 91.6919 492.173 96 492M24 483L25 484L24 483z" style="fill:#fffed5; stroke:none;"/>\n</svg>